<?xml version="1.0" encoding="iso-8859-1"?>
<!-- Generator: Adobe Illustrator 19.0.0, SVG Export Plug-In . SVG Version: 6.00 Build 0)  -->
<svg version="1.1" id="Capa_1" xmlns="http://www.w3.org/2000/svg" xmlns:xlink="http://www.w3.org/1999/xlink" x="0px" y="0px"
	 viewBox="0 0 468.293 468.293" style="enable-background:new 0 0 468.293 468.293;" xml:space="preserve">
<path style="fill:#E56353;" d="M120.198,37.797c0,0,64.456-38.395,129.026,52.93c3.749,5.302,7.141,10.795,10.459,16.376
	c9.641,16.214,54.689,78.422,161.805,43.137c0,0-20.182,99.469-150.645,71.358c0,0-104.514-31.715-150.645,69.917V37.797z"/>
<path style="fill:#2D93BA;" d="M123.32,413.191H89.87V21.231l-6.273-10.284C80.671,6.15,84.123,0,89.742,0h33.706
	c5.619,0,9.071,6.15,6.145,10.946l-6.273,10.284V413.191z"/>
<path style="fill:#1C75A1;" d="M106.595,408.502c-33.021,0-59.79,26.769-59.79,59.79h119.58
	C166.385,435.272,139.616,408.502,106.595,408.502z"/>
<g>
</g>
<g>
</g>
<g>
</g>
<g>
</g>
<g>
</g>
<g>
</g>
<g>
</g>
<g>
</g>
<g>
</g>
<g>
</g>
<g>
</g>
<g>
</g>
<g>
</g>
<g>
</g>
<g>
</g>
</svg>
